<svg width="678" height="459" viewBox="0 0 678 459" fill="none" xmlns="http://www.w3.org/2000/svg">
<g clip-path="url(#clip0_114_135)">
<path d="M490.329 92.114L325.204 31.0794L189.35 87.5918L126.121 230.411L199.326 399.812L373.46 433.739L525.605 360.557L555.064 209.355L490.329 92.114Z" fill="#DCC1FF"/>
<path d="M373.189 84.0256L302.793 229.573L358.262 271.579L478.203 155.784L484.994 55.0001L373.189 84.0256ZM419.984 162.108C404.017 164.491 389.143 153.497 386.764 137.554C384.385 121.61 395.4 106.752 411.367 104.369C427.334 101.987 442.208 112.98 444.587 128.924C446.967 144.867 435.951 159.725 419.984 162.108Z" fill="#842E60"/>
<path d="M322.775 168.335L294.718 224.586L220.973 231.221L237.851 202.839L322.775 168.335Z" fill="#842E60"/>
<path d="M419.053 228.091L363.831 277.881L385.713 335.429L409.566 317.117L419.053 228.091Z" fill="#842E60"/>
<path d="M301.327 245.661L230.852 291.505L282.549 275.77L239.865 351.901L310.992 284.521L302.016 342.626L337.471 272.73L301.327 245.661Z" fill="#842E60"/>
</g>
<defs>
<clipPath id="clip0_114_135">
<rect width="678" height="459" fill="white"/>
</clipPath>
</defs>
</svg>
