<svg id="Ebene_1" xmlns="http://www.w3.org/2000/svg" version="1.1" viewBox="0 0 169.6 169.6">
  <!-- Generator: Adobe Illustrator 30.1.0, SVG Export Plug-In . SVG Version: 2.1.1 Build 136)  -->
  <defs>
    <style>
      .st0 {
        fill: #842e60;
      }

      .st1 {
        fill: #fff;
      }
    </style>
  </defs>
  <rect class="st0" x="0" y="0" width="169.6" height="169.6"/>
  <circle class="st0" cx="84.8" cy="84.8" r="84.8"/>
  <g>
    <path class="st1" d="M113.4,54.5c-11.6,0-18.3,6.2-21.8,14.9-2.5-9.5-8.9-14.9-19.8-14.9s-17.4,5.8-21,14v-12.1h-15v60.4h15v-26.5c0-16.8,5.4-23.6,15.3-23.6s11.8,4.2,11.8,14.4v35.7h14.7v-26.5c0-16.8,5.3-23.6,15.5-23.6s11.8,4.2,11.8,14.4v35.7h15v-37.3c0-15.8-6.8-25-21.6-25"/>
    <rect class="st1" x="35.8" y="43.4" width="30.6" height="5.3"/>
  </g>
</svg>