<svg xmlns="http://www.w3.org/2000/svg" xmlns:xlink="http://www.w3.org/1999/xlink" width="230.449" height="52.922" viewBox="0 0 230.449 52.922">
  <defs>
    <clipPath id="clip-path">
      <rect id="Rechteck_2" data-name="Rechteck 2" width="230.449" height="52.922" fill="none"/>
    </clipPath>
  </defs>
  <g id="Gruppe_3" data-name="Gruppe 3" transform="translate(-43.977 -51.905)">
    <g id="Logo" transform="translate(43.977 51.905)">
      <path id="Pfad_5" data-name="Pfad 5" d="M93.914,15.273V26.085h-2.6V15.273h-4.19v-2.45H98.1v2.45Z" transform="translate(-20.745 -3.053)" fill="#00384f"/>
      <g id="Gruppe_2" data-name="Gruppe 2">
        <g id="Gruppe_1" data-name="Gruppe 1" clip-path="url(#clip-path)">
          <path id="Pfad_6" data-name="Pfad 6" d="M104.681,12.16a1.534,1.534,0,1,1-1.534,1.553,1.534,1.534,0,0,1,1.534-1.553m-1.234,4.564h2.488v9.2h-2.488Z" transform="translate(-24.561 -2.895)" fill="#00384f"/>
          <path id="Pfad_7" data-name="Pfad 7" d="M112.342,27.279h-2.488v-9.2h2.412v1.141a3.058,3.058,0,0,1,2.657-1.384c2.282,0,3.329,1.627,3.329,3.648v5.8h-2.488V21.91a1.617,1.617,0,0,0-1.7-1.833,1.733,1.733,0,0,0-1.721,1.908Z" transform="translate(-26.158 -4.246)" fill="#00384f"/>
          <path id="Pfad_8" data-name="Pfad 8" d="M125.278,27.208a2.061,2.061,0,0,0,2.152,1.74c1.571,0,2.45-.786,2.45-2.563v-.674a2.923,2.923,0,0,1-2.563,1.179,4.26,4.26,0,0,1-4.283-4.471,4.318,4.318,0,0,1,4.283-4.489,2.787,2.787,0,0,1,2.619,1.253V18.1h2.394V26.31c0,2.525-1.365,4.826-4.826,4.826a4.238,4.238,0,0,1-4.471-3.329Zm4.639-4.788a2.193,2.193,0,1,0-4.378,0,2.194,2.194,0,1,0,4.378,0" transform="translate(-29.296 -4.269)" fill="#00384f"/>
          <path id="Pfad_9" data-name="Pfad 9" d="M147.1,22.665a4.826,4.826,0,1,1-9.652,0,4.826,4.826,0,1,1,9.652,0m-2.488,0a2.353,2.353,0,1,0-4.676,0,2.353,2.353,0,1,0,4.676,0" transform="translate(-32.729 -4.234)" fill="#00384f"/>
          <path id="Pfad_10" data-name="Pfad 10" d="M168.675,26l-.168-1.515a4.57,4.57,0,0,1-3.91,1.8,6.532,6.532,0,0,1-6.622-6.9,6.669,6.669,0,0,1,6.79-6.922,5.989,5.989,0,0,1,6.062,4.078l-2.47.878a3.541,3.541,0,0,0-3.592-2.543,4.133,4.133,0,0,0-4.171,4.508c0,2.993,1.963,4.545,4.19,4.545a3.329,3.329,0,0,0,3.554-2.581h-4.19V19.1h6.622V26Z" transform="translate(-37.616 -2.965)" fill="#00384f"/>
          <path id="Pfad_11" data-name="Pfad 11" d="M177.87,27.273v-9.2h2.376v1.123a3.162,3.162,0,0,1,2.694-1.384,2.849,2.849,0,0,1,2.731,1.534,3.4,3.4,0,0,1,6.247,1.964v5.967H189.5V21.811a1.535,1.535,0,0,0-1.627-1.74,1.69,1.69,0,0,0-1.7,1.815v5.387h-2.469V21.811a1.544,1.544,0,0,0-1.627-1.74,1.685,1.685,0,0,0-1.721,1.815v5.387Z" transform="translate(-42.353 -4.24)" fill="#00384f"/>
          <path id="Pfad_12" data-name="Pfad 12" d="M199.293,26V12.455h2.45V17.8a3.274,3.274,0,0,1,2.788-1.253c2.693,0,4.246,2.076,4.246,4.807,0,2.788-1.721,4.864-4.34,4.864a3.116,3.116,0,0,1-2.731-1.347V26Zm4.714-7.22a2.33,2.33,0,0,0-2.3,2.6,2.357,2.357,0,0,0,2.3,2.619,2.324,2.324,0,0,0,2.283-2.619,2.307,2.307,0,0,0-2.283-2.6" transform="translate(-47.454 -2.965)" fill="#00384f"/>
          <path id="Pfad_13" data-name="Pfad 13" d="M222.742,26.086v-5.5h-5.78v5.5h-2.582V12.823h2.582v5.332h5.78V12.823h2.6V26.086Z" transform="translate(-51.047 -3.053)" fill="#00384f"/>
          <path id="Pfad_14" data-name="Pfad 14" d="M88.719,52.568V39.305H93.47c3.779,0,6.548,2.45,6.548,6.641a6.2,6.2,0,0,1-6.566,6.622Zm4.639-2.395c2.17,0,3.985-1.346,3.985-4.228s-1.8-4.246-3.966-4.246H91.3v8.474Z" transform="translate(-21.125 -9.359)" fill="#00384f"/>
          <path id="Pfad_15" data-name="Pfad 15" d="M107.185,38.643a1.534,1.534,0,1,1-1.534,1.553,1.533,1.533,0,0,1,1.534-1.553m-1.234,4.564h2.488v9.2H105.95Z" transform="translate(-25.157 -9.201)" fill="#00384f"/>
          <path id="Pfad_16" data-name="Pfad 16" d="M120.484,51.111a4.145,4.145,0,0,1-4.19,2.918,4.89,4.89,0,0,1-.225-9.764c2.843,0,4.546,1.814,4.546,4.77,0,.355-.038.729-.038.767h-6.584a2.241,2.241,0,0,0,2.319,2.094,2.033,2.033,0,0,0,2.1-1.4Zm-2.32-3.012a1.85,1.85,0,0,0-2.057-1.814,1.991,1.991,0,0,0-2.058,1.814Z" transform="translate(-26.559 -10.54)" fill="#00384f"/>
          <path id="Pfad_17" data-name="Pfad 17" d="M139.815,49.538h-5.389l-1.1,3.031h-2.731l5.089-13.263h2.993l5.05,13.263h-2.805Zm-4.527-2.357h3.665l-1.832-5.013Z" transform="translate(-31.096 -9.359)" fill="#00384f"/>
          <path id="Pfad_18" data-name="Pfad 18" d="M156.328,39.306h2.731L154.14,52.569h-2.657l-4.9-13.263h2.825l3.46,9.858Z" transform="translate(-34.903 -9.359)" fill="#00384f"/>
          <rect id="Rechteck_1" data-name="Rechteck 1" width="5.425" height="2.207" transform="translate(124.396 36.55)" fill="#00384f"/>
          <path id="Pfad_19" data-name="Pfad 19" d="M180.483,49.538h-5.388l-1.1,3.031H171.26l5.089-13.263h2.993l5.051,13.263h-2.806Zm-4.527-2.357h3.666l-1.833-5.013Z" transform="translate(-40.779 -9.359)" fill="#00384f"/>
          <path id="Pfad_20" data-name="Pfad 20" d="M195.851,47.079A3.783,3.783,0,0,0,195.1,47c-1.272,0-2.376.617-2.376,2.6v4.209h-2.488v-9.2h2.413v1.365a2.737,2.737,0,0,1,2.619-1.44,5.8,5.8,0,0,1,.58.037Z" transform="translate(-45.298 -10.604)" fill="#00384f"/>
          <path id="Pfad_21" data-name="Pfad 21" d="M201.2,49.147a2.37,2.37,0,0,0,2.357,2.6,2.107,2.107,0,0,0,2.114-1.553l2.189.73a4.274,4.274,0,0,1-4.3,3.1,4.762,4.762,0,0,1-4.844-4.882,4.711,4.711,0,0,1,4.769-4.882,4.213,4.213,0,0,1,4.321,3.1l-2.225.749a2.008,2.008,0,0,0-2.04-1.553,2.34,2.34,0,0,0-2.338,2.581" transform="translate(-47.317 -10.54)" fill="#00384f"/>
          <path id="Pfad_22" data-name="Pfad 22" d="M215.342,52.48h-2.488V38.937h2.488v5.107a3.287,3.287,0,0,1,2.488-1.01c2.338,0,3.423,1.627,3.423,3.648v5.8h-2.488V47.111a1.617,1.617,0,0,0-1.7-1.833,1.723,1.723,0,0,0-1.721,1.8Z" transform="translate(-50.683 -9.271)" fill="#00384f"/>
          <path id="Pfad_23" data-name="Pfad 23" d="M227.955,38.643a1.534,1.534,0,1,1-1.534,1.553,1.533,1.533,0,0,1,1.534-1.553m-1.234,4.564h2.488v9.2H226.72Z" transform="translate(-53.914 -9.201)" fill="#00384f"/>
          <path id="Pfad_24" data-name="Pfad 24" d="M235.907,43.775h1.852v2.207h-1.852v3.854c0,.8.373,1.067,1.084,1.067a3.613,3.613,0,0,0,.768-.075v2.058a3.691,3.691,0,0,1-1.4.225,2.664,2.664,0,0,1-2.918-2.844V45.982h-1.665V43.775h.468a1.326,1.326,0,0,0,1.422-1.459V41.025h2.245Z" transform="translate(-55.188 -9.768)" fill="#00384f"/>
          <path id="Pfad_25" data-name="Pfad 25" d="M249.945,51.111a4.145,4.145,0,0,1-4.19,2.918,4.89,4.89,0,0,1-.225-9.764c2.843,0,4.546,1.814,4.546,4.77,0,.355-.038.729-.038.767h-6.584a2.241,2.241,0,0,0,2.319,2.094,2.033,2.033,0,0,0,2.1-1.4Zm-2.32-3.012a1.85,1.85,0,0,0-2.057-1.814A1.991,1.991,0,0,0,243.51,48.1Z" transform="translate(-57.386 -10.54)" fill="#00384f"/>
          <path id="Pfad_26" data-name="Pfad 26" d="M260.488,47.149l3.76,5.331H261.2l-2.432-3.517-1.029,1.085V52.48H255.25V38.937h2.488V46.7l3.179-3.423h3.256Z" transform="translate(-60.778 -9.271)" fill="#00384f"/>
          <path id="Pfad_27" data-name="Pfad 27" d="M272.1,43.775h1.852v2.207H272.1v3.854c0,.8.374,1.067,1.085,1.067a3.611,3.611,0,0,0,.767-.075v2.058a3.684,3.684,0,0,1-1.4.225,2.665,2.665,0,0,1-2.918-2.844V45.982h-1.665V43.775h.468a1.326,1.326,0,0,0,1.422-1.459V41.025H272.1Z" transform="translate(-63.807 -9.768)" fill="#00384f"/>
          <path id="Pfad_28" data-name="Pfad 28" d="M286.141,51.111a4.145,4.145,0,0,1-4.19,2.918,4.89,4.89,0,0,1-.225-9.764c2.843,0,4.546,1.814,4.546,4.77,0,.355-.038.729-.038.767h-6.584a2.241,2.241,0,0,0,2.319,2.094,2.033,2.033,0,0,0,2.1-1.4Zm-2.32-3.012a1.85,1.85,0,0,0-2.057-1.814,1.991,1.991,0,0,0-2.058,1.814Z" transform="translate(-66.004 -10.54)" fill="#00384f"/>
          <path id="Pfad_29" data-name="Pfad 29" d="M293.936,53.761h-2.488v-9.2h2.412V45.7a3.058,3.058,0,0,1,2.657-1.384c2.282,0,3.329,1.627,3.329,3.648v5.8h-2.488V48.392a1.617,1.617,0,0,0-1.7-1.833,1.733,1.733,0,0,0-1.721,1.908Z" transform="translate(-69.397 -10.551)" fill="#00384f"/>
          <path id="Pfad_30" data-name="Pfad 30" d="M21.822,32.233,0,39.414v-23l21.786-7.1Z" transform="translate(0 -2.218)" fill="#e6c568"/>
          <path id="Pfad_31" data-name="Pfad 31" d="M50.385,0,28.6,7.1v0L50.488,23.087Z" transform="translate(-6.81 0)" fill="#43b9c1"/>
          <path id="Pfad_32" data-name="Pfad 32" d="M59.987,60.137l-.027-22.924L50.5,30.3v0L28.644,37.23Z" transform="translate(-6.82 -7.215)" fill="#e7623f"/>
          <path id="Pfad_33" data-name="Pfad 33" d="M50.488,25.306,28.6,9.319l.019,13.335.015,9.578,21.855-6.925Z" transform="translate(-6.81 -2.219)" fill="#3b3f64"/>
        </g>
      </g>
    </g>
  </g>
</svg>
